<svg data-logo="logo" xmlns="http://www.w3.org/2000/svg" viewBox="0 0 174 42">
        <g style="opacity: 1;" id="logogram" transform="translate(0, 1) rotate(0)"><path d="M10 15.1533L56.0254 27.3643C57.7788 27.8295 59 29.4164 59 31.2305V40H49V35.8457L29.501 30.6729L10 35.8457V40H0V31.2305C4.53996e-06 29.4164 1.22118 27.8295 2.97461 27.3643L10.001 25.499L2.97461 23.6357C1.22116 23.1706 3.02567e-05 21.5836 0 19.7695V14C0 11.7909 1.79086 10 4 10H10V15.1533Z" fill="#3B82F6"></path><path d="M55 10C57.2091 10 59 11.7909 59 14V20H49V10H55Z" fill="#3B82F6"></path><path d="M45 0C47.2091 0 49 1.79086 49 4V10H10V4C10 1.79086 11.7909 2.81866e-08 14 0H45Z" fill="#3B82F6"></path></g>
        <g style="opacity: 1;" id="logotype" transform="translate(65, 7)"><path fill="#222428" d="M12.62 28L8.63 28L8.63 3.67L17.02 3.67Q19.93 3.67 21.84 4.65Q23.75 5.63 24.69 7.28Q25.64 8.92 25.64 10.92L25.64 10.92Q25.64 12.63 24.80 14.30Q23.96 15.96 22.08 17.04Q20.21 18.13 17.02 18.13L17.02 18.13L12.62 18.13L12.62 28ZM12.62 6.93L12.62 14.87L17.02 14.87Q19.37 14.87 20.46 13.81Q21.54 12.74 21.54 10.92L21.54 10.92Q21.54 9.03 20.46 7.98Q19.37 6.93 17.02 6.93L17.02 6.93L12.62 6.93ZM35.58 28.25L35.58 28.25Q33.05 28.25 31.01 27.00Q28.96 25.76 27.75 23.54Q26.55 21.31 26.55 18.34L26.55 18.34Q26.55 15.36 27.75 13.14Q28.96 10.92 31.01 9.69Q33.05 8.47 35.58 8.47L35.58 8.47Q37.95 8.47 39.74 9.64Q41.53 10.81 42.33 12.88L42.33 12.88L42.33 8.71L46.36 8.71L46.36 28L44.57 28Q43.59 28 42.96 27.37Q42.33 26.74 42.33 25.76L42.33 25.76L42.33 23.80Q41.53 25.86 39.74 27.05Q37.95 28.25 35.58 28.25ZM36.48 24.78L36.48 24.78Q37.99 24.78 39.32 24.04Q40.65 23.31 41.49 21.86Q42.33 20.41 42.33 18.34L42.33 18.34Q42.33 16.24 41.49 14.82Q40.65 13.40 39.32 12.67Q37.99 11.93 36.48 11.93L36.48 11.93Q35.02 11.93 33.67 12.67Q32.32 13.40 31.48 14.82Q30.64 16.24 30.64 18.34L30.64 18.34Q30.64 20.41 31.48 21.86Q32.32 23.31 33.67 24.04Q35.02 24.78 36.48 24.78ZM54.37 28L50.38 28L50.38 8.71L54.37 8.71L54.37 28ZM54.37 18.27L53.22 18.27L54.37 12.95Q55.07 10.88 56.66 9.68Q58.26 8.47 60.29 8.47L60.29 8.47L60.29 12.60Q60.01 12.53 59.74 12.51Q59.48 12.49 59.20 12.49L59.20 12.49Q57.77 12.49 56.68 13.14Q55.60 13.79 54.98 15.07Q54.37 16.34 54.37 18.27L54.37 18.27ZM66.73 28L62.74 28L62.74 2.10L66.73 2.10L66.73 16.80Q68.58 16.48 70.28 15.49Q71.98 14.49 73.25 12.79Q74.53 11.09 75.06 8.71L75.06 8.71L79.26 8.71Q78.73 11.02 77.51 12.93Q76.28 14.84 74.65 16.22Q73.03 17.60 71.24 18.30L71.24 18.30Q72.57 18.69 73.94 19.62Q75.30 20.54 76.51 21.84Q77.72 23.13 78.57 24.71Q79.43 26.29 79.68 28L79.68 28L75.48 28Q75.13 26.32 74.23 24.94Q73.34 23.55 72.13 22.52Q70.93 21.49 69.53 20.84Q68.13 20.20 66.73 20.05L66.73 20.05L66.73 28ZM85.42 28L81.43 28L81.43 8.71L85.42 8.71L85.42 28ZM83.46 6.16L83.46 6.16Q82.20 6.16 81.32 5.35Q80.45 4.55 80.45 3.36L80.45 3.36Q80.45 2.17 81.32 1.35Q82.20 0.52 83.46 0.52L83.46 0.52Q84.68 0.52 85.57 1.35Q86.47 2.17 86.47 3.36L86.47 3.36Q86.47 4.55 85.57 5.35Q84.68 6.16 83.46 6.16ZM97.98 28.25L97.98 28.25Q95.25 28.25 93.06 27.02Q90.88 25.80 89.60 23.55Q88.32 21.31 88.32 18.34L88.32 18.34Q88.32 15.33 89.63 13.12Q90.95 10.92 93.19 9.69Q95.43 8.47 98.16 8.47L98.16 8.47Q100.92 8.47 103.14 9.69Q105.37 10.92 106.68 13.12Q107.99 15.33 107.99 18.34L107.99 18.34Q107.99 21.31 106.64 23.55Q105.30 25.80 103.02 27.02Q100.75 28.25 97.98 28.25ZM97.98 24.78L97.98 24.78Q99.49 24.78 100.83 24.06Q102.18 23.34 103.04 21.91Q103.90 20.48 103.90 18.34L103.90 18.34Q103.90 16.17 103.06 14.75Q102.22 13.33 100.90 12.63Q99.59 11.93 98.09 11.93L98.09 11.93Q96.58 11.93 95.29 12.63Q93.99 13.33 93.19 14.75Q92.38 16.17 92.38 18.34L92.38 18.34Q92.38 20.48 93.15 21.91Q93.92 23.34 95.20 24.06Q96.48 24.78 97.98 24.78Z"></path></g>
        
      </svg>